<?xml version="1.0" encoding="utf-8"?>
<!-- Generator: Adobe Illustrator 15.1.0, SVG Export Plug-In . SVG Version: 6.00 Build 0)  -->
<!DOCTYPE svg PUBLIC "-//W3C//DTD SVG 1.1//EN" "http://www.w3.org/Graphics/SVG/1.1/DTD/svg11.dtd">
<svg version="1.1" xmlns="http://www.w3.org/2000/svg" xmlns:xlink="http://www.w3.org/1999/xlink" x="0px" y="0px"
	 width="87.324px" height="70.587px" viewBox="4.95 16.538 87.324 70.587" enable-background="new 4.95 16.538 87.324 70.587"
	 xml:space="preserve">
<g id="Capa_1">
</g>
<g id="Layer_2">
	<g>
		<path fill="#FFFFFF" d="M89.336,83.979c-0.696,0-1.336-0.461-1.531-1.165c-0.143-0.515-0.65-1.272-1.099-1.941
			c-0.264-0.393-0.536-0.8-0.762-1.192c-0.358-0.626-0.722-1.249-1.085-1.873c-0.758-1.302-1.541-2.647-2.285-4.013
			c-0.384-0.706-0.764-1.413-1.144-2.12c-2.297-4.281-4.466-8.325-7.563-11.825c-3.016-3.408-7.18-6.68-12.04-9.461
			c-2.07-1.185-4.293-2.421-6.692-3.377c-0.518-0.206-1.037-0.445-1.54-0.677c-1.166-0.537-2.371-1.093-3.443-1.167
			c-0.876-0.062-1.536-0.821-1.475-1.697c0.062-0.875,0.812-1.538,1.697-1.475c1.651,0.116,3.191,0.826,4.551,1.452
			c0.486,0.224,0.945,0.436,1.387,0.611c2.591,1.032,4.926,2.33,7.095,3.571c5.157,2.951,9.599,6.448,12.841,10.112
			c3.343,3.778,5.702,8.176,7.984,12.43c0.376,0.701,0.752,1.402,1.133,2.102c0.724,1.327,1.495,2.652,2.241,3.935
			c0.367,0.63,0.733,1.26,1.096,1.892c0.17,0.296,0.4,0.64,0.645,1.004c0.582,0.868,1.242,1.853,1.521,2.861
			c0.235,0.847-0.261,1.723-1.107,1.957C89.619,83.961,89.477,83.979,89.336,83.979z"/>
	</g>
	<g>
		<path fill="#FFFFFF" d="M90.619,87.125c-0.427,0-0.845-0.172-1.149-0.492c-3.744-3.921-7.162-6.875-11.082-9.582
			c-2.479-1.711-4.698-3.098-6.785-4.237c-0.692-0.378-1.272-0.748-1.833-1.105c-0.678-0.432-1.262-0.806-1.927-1.118
			c-0.794-0.374-1.135-1.321-0.761-2.115c0.373-0.794,1.32-1.135,2.115-0.761c0.849,0.4,1.577,0.864,2.281,1.313
			c0.517,0.329,1.051,0.67,1.647,0.997c2.186,1.192,4.497,2.636,7.067,4.411c3.067,2.117,5.922,4.454,8.797,7.213
			c-0.104-1.249-0.271-2.529-0.437-3.788c-0.104-0.786-0.204-1.556-0.286-2.296c-0.17-1.521-0.561-3.014-0.974-4.594
			c-0.56-2.136-1.138-4.345-1.158-6.706c-0.008-0.878,0.698-1.595,1.575-1.603c0.005,0,0.01,0,0.015,0
			c0.871,0,1.581,0.702,1.589,1.575c0.017,1.966,0.521,3.891,1.054,5.929c0.425,1.62,0.863,3.296,1.059,5.046
			c0.08,0.721,0.178,1.471,0.278,2.235c0.343,2.614,0.73,5.576,0.497,8.228c-0.055,0.622-0.468,1.153-1.058,1.36
			C90.973,87.096,90.796,87.125,90.619,87.125z"/>
	</g>
	<g>
		<path fill="#FFFFFF" d="M9.934,28.536c0.596,0,1.145,0.164,1.647,0.491c-0.059,0.102-0.087,0.258-0.087,0.469l0.229,0.557v0.272
			c-0.254,0.517-0.8,0.909-1.636,1.178c-0.851,0.255-1.403,0.604-1.658,1.047c-0.313,0.69-0.469,1.243-0.469,1.658v0.272
			c0,0.844,0.494,1.349,1.483,1.516h0.622c0.981,0,2.665-0.538,5.05-1.614c1.025-0.429,1.694-0.644,2.007-0.644h0.087
			c0.509,0.495,0.771,0.866,0.785,1.113c-0.029,0.167-0.469,0.651-1.32,1.45c-0.189,0.408-0.403,0.611-0.644,0.611
			c-2.698,1.607-4.992,2.411-6.882,2.411c-2.043,0-3.414-0.975-4.112-2.923L4.95,35.396v-0.447c0-2.24,0.917-4.148,2.749-5.726
			c0.727-0.458,1.425-0.687,2.094-0.687H9.934z"/>
		<path fill="#FFFFFF" d="M18.801,18.556c0.552,0,0.829,0.196,0.829,0.589c0.211,0.938,0.316,1.913,0.316,2.923l-0.316,6.74v0.698
			c0,2.043,0.349,4.842,1.047,8.398v0.491c0,0.574-0.164,0.902-0.491,0.981c-0.204,0-0.632,0.087-1.287,0.262
			c-0.167-0.138-0.458-0.323-0.873-0.556c-0.792-4.231-1.188-7.656-1.188-10.274v-1.276c0-1.861,0.185-3.748,0.556-5.661
			c-0.087,0-0.167-0.32-0.24-0.959l-0.36-0.24c0.182,0,0.338-0.549,0.469-1.647c0.509-0.313,0.963-0.469,1.363-0.469H18.801z"/>
		<path fill="#FFFFFF" d="M23.589,22.253c0.749,0,1.196,0.186,1.342,0.556l0.131,0.545c0,0.56-0.593,0.945-1.778,1.156h-0.316
			c-0.865-0.058-1.298-0.32-1.298-0.786l-0.043-0.174v-0.24c0.225-0.706,0.792-1.058,1.701-1.058H23.589z M24.287,27.15
			c0.342,1.934,0.513,3.966,0.513,6.097v1.276l-0.087,4.711c-0.24,0.16-0.593,0.287-1.058,0.382l-0.327,0.349h-0.044
			c-0.254,0-0.487-0.193-0.698-0.578c0,0.182-0.029,0.272-0.087,0.272c-0.451-0.393-0.676-1.236-0.676-2.53l0.403-5.355
			c-0.058-0.705-0.087-1.785-0.087-3.239c0-1.222,0.425-1.833,1.276-1.833C23.996,26.703,24.287,26.853,24.287,27.15z"/>
		<path fill="#FFFFFF" d="M31.136,28.536c0.596,0,1.145,0.164,1.647,0.491c-0.058,0.102-0.087,0.258-0.087,0.469l0.229,0.557v0.272
			c-0.255,0.517-0.8,0.909-1.636,1.178c-0.851,0.255-1.403,0.604-1.658,1.047c-0.313,0.69-0.469,1.243-0.469,1.658v0.272
			c0,0.844,0.495,1.349,1.483,1.516h0.622c0.982,0,2.665-0.538,5.05-1.614c1.025-0.429,1.694-0.644,2.007-0.644h0.087
			c0.509,0.495,0.771,0.866,0.785,1.113c-0.029,0.167-0.469,0.651-1.319,1.45c-0.189,0.408-0.404,0.611-0.644,0.611
			c-2.697,1.607-4.992,2.411-6.882,2.411c-2.043,0-3.414-0.975-4.112-2.923l-0.087-1.003v-0.447c0-2.24,0.916-4.148,2.748-5.726
			c0.727-0.458,1.425-0.687,2.094-0.687H31.136z"/>
		<path fill="#FFFFFF" d="M41.868,16.538c0.611,0.073,0.916,0.208,0.916,0.404c0.146,1.083,0.219,2.414,0.219,3.992v0.447
			c0,2.087-0.117,4.137-0.349,6.151l5.017-1.614l1.342-0.174c0.683,0,1.2,0.164,1.548,0.491c-0.094,0.313-0.142,0.684-0.142,1.112
			l0.043,0.044c-0.654,0.552-1.749,1.054-3.283,1.505c-1.309,0.298-2.439,0.647-3.392,1.047c-0.298,0.131-0.662,0.36-1.091,0.688
			v0.087c0.247,0.495,1.036,0.956,2.367,1.385c0.981,0.298,1.702,0.665,2.16,1.102h0.36c0.152,0,0.549,0.2,1.189,0.6
			c2.603,1.134,4.01,1.923,4.221,2.367v0.044c-0.095,0-0.171,0.32-0.229,0.96c-0.116,0.254-0.436,0.382-0.96,0.382l-0.599,0.229
			c-3.186-1.476-5.381-2.468-6.588-2.978c-0.72-0.269-1.331-0.454-1.833-0.556c-0.182,0.371-0.272,0.833-0.272,1.385l0.142,3.064
			c0,0.611-0.142,1.033-0.426,1.266c-0.094,0.065-0.17,0.323-0.229,0.774l-0.687,0.284l-0.185,0.044
			c-0.545-0.138-0.895-0.273-1.047-0.404c-0.284-0.582-0.425-1.469-0.425-2.661l0.065-4.068l-0.043-1.09l-1.342-0.916l0.044-0.556
			l-0.175-0.655c0-0.385,0.553-0.927,1.658-1.625c0.189,0,0.32-3.41,0.393-10.23c0.08-1.25,0.171-1.876,0.273-1.876
			c0.429-0.298,0.814-0.447,1.156-0.447H41.868z"/>
		<path fill="#FFFFFF" d="M69.833,28.939c0.967,0.145,1.487,0.345,1.56,0.6c0.479,0.771,1.054,2.178,1.723,4.221
			c0.517,1.65,1.096,3.207,1.734,4.668c0,0.116-0.178,0.324-0.534,0.622c0,0.152-0.051,0.229-0.152,0.229
			c-1.418,0-2.363-0.774-2.836-2.323c-0.479-1.702-0.891-2.832-1.232-3.392h-0.044c-1.338,3.839-2.312,5.759-2.922,5.759h-0.382
			c-1.106,0-1.746-1.138-1.92-3.414c-0.182-1.803-0.331-2.705-0.447-2.705c-0.371,0.4-0.797,1.451-1.276,3.152
			c-0.502,1.919-1.163,2.879-1.985,2.879c-0.341,0-0.723-0.149-1.146-0.447l0.056-0.229v-0.196l-0.273-0.316
			c0.182-0.567,0.273-1.13,0.273-1.69l-0.099-2.934l0.043-0.687c0.313,0,0.47-0.269,0.47-0.807v-0.24c0-0.08,0.24-0.2,0.72-0.36
			c0.072-0.182,0.138-0.272,0.196-0.272l0.589,0.229c0.116-0.015,0.622-0.538,1.516-1.571c0.371-0.298,0.586-0.447,0.645-0.447
			c1.417,0,2.396,0.931,2.934,2.792l0.175,0.447h0.087c0.239-0.458,0.545-1.232,0.916-2.323c0.196-0.385,0.414-0.676,0.654-0.873
			l0.393,0.054l0.338-0.425H69.833z"/>
		<path fill="#FFFFFF" d="M83.717,30.226c0.175,0.625,0.262,1.112,0.262,1.461c0,1.455-1.131,2.628-3.392,3.523v0.043
			c0.61,1.011,1.392,1.516,2.345,1.516c1.323,0,2.73-1.054,4.221-3.163c0.924-1.032,1.626-1.548,2.105-1.548h0.087l0.087,0.098
			v0.447l-0.043,0.174c0.015,0.073,0.072,0.124,0.175,0.152c0.195,0,0.322-0.156,0.381-0.469h0.088v0.043
			c0,0.495-0.43,1.309-1.287,2.443c-0.153,0.262-0.258,0.549-0.316,0.862c-0.4,0.094-0.6,0.258-0.6,0.49
			c-0.821,1.346-2.029,2.294-3.621,2.847c-0.523,0.116-0.949,0.175-1.276,0.175h-0.447c-2.145,0-4.253-1.549-6.325-4.646
			l-0.219-3.534v-0.327c0-1.447,0.469-2.348,1.407-2.705c1.01-0.567,1.898-0.851,2.661-0.851
			C81.528,27.26,82.765,28.249,83.717,30.226z M79.397,33.378c0.328,0,0.836-0.258,1.527-0.774c0.116-0.364,0.175-0.655,0.175-0.873
			c0-0.88-0.393-1.491-1.179-1.833l-0.337-0.043c-0.451,0-0.677,0.142-0.677,0.425c-0.16,0.291-0.24,0.713-0.24,1.266
			C78.667,32.411,78.911,33.022,79.397,33.378z"/>
	</g>
</g>
</svg>
