<?xml version="1.0"?>
<svg width="44" height="44" xmlns="http://www.w3.org/2000/svg" xmlns:svg="http://www.w3.org/2000/svg" xmlns:xlink="http://www.w3.org/1999/xlink">
 <g>
  <title>Layer 1</title>
  <use fill="#ffffff" x="263.424772" y="272.409311" transform="matrix(0.7812794374032398,0,0,0.7812794374032398,-200.99631726111798,-208.0159194217776) " xlink:href="#svg_3" id="svg_4"/>
 </g>
 <defs>
  <symbol viewBox="0 0 200 200" y="0px" x="0px" id="svg_3" xmlns:xlink="http://www.w3.org/1999/xlink" xmlns="http://www.w3.org/2000/svg">
   <g>
    <path d="m85.867996,85.869003c1.599007,-1.600006 3.732002,-2.480003 6.005005,-2.480003c2.273003,0 4.405998,0.880997 6.004997,2.480003l16.252998,16.252998c0.563004,0.561996 1.326004,0.878998 2.121002,0.878998s1.558998,-0.316002 2.121002,-0.878998l16.253006,-16.252998c0.562988,-0.562004 0.878998,-1.326004 0.878998,-2.121002s-0.31601,-1.558998 -0.878998,-2.121002l-16.253006,-16.252998c-7.081001,-7.079002 -16.493004,-10.977001 -26.500999,-10.977001c-10.008003,0 -19.419998,3.897999 -26.500999,10.976002l-48.761002,48.761002c-7.081,7.080994 -10.981,16.494003 -10.981,26.505005c0,10.011993 3.9,19.421997 10.982,26.497986l16.251999,16.252014c7.075001,7.080994 16.486,10.980988 26.497002,10.980988c10.011002,0 19.423996,-3.899994 26.505997,-10.980988l27.478004,-27.478012c0.883995,-0.884003 1.126999,-2.222992 0.611,-3.360992c-0.488998,-1.076996 -1.561005,-1.76001 -2.731003,-1.76001c-0.067001,0 -0.132996,0.002014 -0.200996,0.007004c-0.967003,0.065002 -1.947006,0.097 -2.914001,0.097c-7.632004,0 -15.138,-2.028992 -21.705002,-5.867996c-0.472,-0.276001 -0.993996,-0.410004 -1.513,-0.410004c-0.776001,0 -1.543999,0.30101 -2.122002,0.878998l-17.397995,17.39801c-1.602001,1.60199 -3.734001,2.485001 -6.004002,2.485001c-2.271,0 -4.404999,-0.882004 -6.007,-2.485001l-16.253002,-16.253006c-1.604,-1.600006 -2.487,-3.729004 -2.488998,-5.996002c-0.000999,-2.272003 0.882,-4.408005 2.488998,-6.014999l48.760998,-48.759995z"/>
    <path d="m183.388,32.860001l-16.253006,-16.253c-7.075989,-7.078 -16.485992,-10.977 -26.496994,-10.977c-10.011002,0 -19.424004,3.898 -26.504997,10.976001l-27.479004,27.49c-0.884003,0.883999 -1.126999,2.223999 -0.610001,3.362c0.488998,1.076 1.561005,1.758999 2.730003,1.758999c0.067001,0 0.134995,-0.001999 0.202995,-0.007c0.976006,-0.065998 1.965004,-0.098999 2.941002,-0.098999c7.647003,0 15.136002,2.028 21.657997,5.865002c0.474007,0.278999 0.999001,0.413998 1.520004,0.413998c0.776001,0 1.543999,-0.300999 2.122002,-0.878998l17.410004,-17.41c1.598999,-1.600002 3.731995,-2.480003 6.00499,-2.480003s4.406006,0.881001 6.005005,2.480003l16.253006,16.252998c3.307999,3.312 3.307999,8.703999 -0.001007,12.018002l-48.759003,48.758995c-1.598999,1.603004 -3.727997,2.485001 -5.995995,2.485001c-2.273003,0 -4.410004,-0.882996 -6.018005,-2.487l-16.249001,-16.25c-0.562996,-0.561996 -1.325996,-0.878998 -2.120995,-0.878998s-1.558998,0.316002 -2.121002,0.878998l-16.252998,16.253006c-1.172005,1.171997 -1.172005,3.070999 0,4.242996l16.252998,16.253006c7.081001,7.080994 16.493004,10.980988 26.500999,10.980988c10.008003,0 19.419998,-3.899994 26.501007,-10.980988l48.759979,-48.76001c7.081009,-7.077995 10.981003,-16.490997 10.981003,-26.503998c0.000015,-10.012997 -3.899994,-19.425999 -10.980988,-26.503998z"/>
   </g>
  </symbol>
 </defs>
</svg>