<?xml version="1.0"?>
<svg width="44" height="44" xmlns="http://www.w3.org/2000/svg" xmlns:svg="http://www.w3.org/2000/svg" xmlns:xlink="http://www.w3.org/1999/xlink">
 <g>
  <title>Layer 1</title>
  <use fill="#ffffff" x="-2.038323" y="-0.341139" transform="matrix(1.0229347272104405,0,0,1.0229347272104405,-1.6757306269328183,-1.9191632842448598) " xlink:href="#svg_10" id="svg_11"/>
 </g>
 <defs>
  <symbol viewBox="0 0 50 50" height="50px" width="50px" y="0px" x="0px" id="svg_10" xmlns:xlink="http://www.w3.org/1999/xlink" xmlns="http://www.w3.org/2000/svg">
   <path d="m37.256001,14.1l-28.51,0c-0.999,0 -1.811,0.811 -1.811,1.811999l0,22.175002c0,0.997997 0.812,1.810997 1.811,1.810997l28.51,0c1,0 1.811001,-0.812 1.811001,-1.810997l0,-22.176002c-0.003002,-1.002 -0.811001,-1.811 -1.811001,-1.811zm-1.811001,3.621l0,16.323002l-4.140999,-5.026001c-0.152,-0.184 -0.421001,-0.217001 -0.615002,-0.076l-4.816,3.515999l-8.27,-8.045c-0.096001,-0.094 -0.229,-0.134998 -0.358,-0.126999c-0.134001,0.011999 -0.253,0.083 -0.329,0.191l-6.358999,9.098l0,-15.854l24.888,0l0,0zm-10.860001,6.789c0,-1.623001 1.319,-2.943001 2.940001,-2.943001c1.622999,0 2.941,1.32 2.941,2.943001c0,1.618999 -1.318001,2.940001 -2.941,2.940001c-1.621,0 -2.940001,-1.321001 -2.940001,-2.940001zm17.122002,8.823c-0.75,0 -1.356998,-0.608002 -1.356998,-1.356001l0,-19.159999l-28.209002,0c-0.75,0 -1.356999,-0.606 -1.356999,-1.356c0,-0.749001 0.606999,-1.356001 1.356999,-1.356001l29.566001,0c0.749001,0 1.356998,0.607 1.356998,1.356001l0,20.517c0,0.746998 -0.607998,1.355 -1.356998,1.355z"/>
  </symbol>
 </defs>
</svg>