<?xml version="1.0" encoding="iso-8859-1"?>
<!-- Generator: Adobe Illustrator 17.0.0, SVG Export Plug-In . SVG Version: 6.00 Build 0)  -->
<!DOCTYPE svg PUBLIC "-//W3C//DTD SVG 1.1//EN" "http://www.w3.org/Graphics/SVG/1.1/DTD/svg11.dtd">
<svg version="1.1" id="Layer_1" xmlns="http://www.w3.org/2000/svg" xmlns:xlink="http://www.w3.org/1999/xlink" x="0px" y="0px"
	 width="510.955px" height="107.835px" viewBox="0 0 510.955 107.835" style="enable-background:new 0 0 510.955 107.835;"
	 xml:space="preserve">
<g>
	<path style="fill:#FFFFFF;" d="M502.553,50.806c-3.858-4.588-8.827-8.258-14.87-10.443c-18.317-6.622-38.481,2.859-45.103,21.175
		s2.885,38.534,21.202,45.156c1.125,0.407,2.27,0.752,3.405,1.038l6.063-16.751c-1.156-0.17-2.308-0.457-3.449-0.869
		c-9.158-3.311-13.897-13.419-10.586-22.578c3.311-9.158,13.42-13.835,22.579-10.524c9.158,3.311,13.979,13.641,10.668,22.641h0.083
		v-0.053l-10.361,28.053h18.75l7.61-22.057v-0.037v-0.019C513.544,73.263,510.39,60.124,502.553,50.806z"/>
	<path style="fill:#FFFFFF;" d="M354.545,39.29c-6.043-2.185-12.291-2.607-18.191-1.547c-11.984,2.152-22.527,10.448-26.965,22.722
		c0,0,0,0,0,0.001c0,0,0,0,0,0l-8.675,23.997l10.588,22.578l4.289-11.863l10.382-28.717l0,0l0,0
		c3.311-9.158,13.419-13.898,22.578-10.587c9.158,3.311,13.899,13.419,10.588,22.578c-3.311,9.158-13.419,13.899-22.578,10.588
		c-1.142-0.413-2.215-0.931-3.212-1.54l-6.049,16.733c1.058,0.507,2.139,0.982,3.266,1.39c18.317,6.622,38.534-2.859,45.156-21.175
		C382.342,66.129,372.861,45.912,354.545,39.29z"/>
	<path style="fill:#FFFFFF;" d="M422.149,89.04c-9.158-3.311-13.899-13.419-10.588-22.578c1.855-5.132,5.845-8.875,10.606-10.593
		l6.679-18.668c-10.393-0.228-20.302,4.185-27.302,11.939V0l-17,17.557v8.454v64.164l17,17.557V95.777
		c4,4.31,8.759,7.756,14.539,9.845c9.781,3.536,20.137,2.478,28.643-2.063l-7.489-16.008
		C432.841,90.201,427.351,90.921,422.149,89.04z"/>
	<path style="fill:#FFFFFF;" d="M243.929,40.397c-3.892-1.407-7.94-2.12-12.033-2.12c-14.86,0-28.24,9.394-33.295,23.376
		c-3.215,8.893-2.775,18.505,1.24,27.066c3.722,7.936,10.101,14.088,18.095,17.505l2.839-7.851
		C208,92.63,201.596,77.871,206.434,64.486c3.865-10.69,14.096-17.873,25.46-17.873c3.136,0,6.232,0.544,9.203,1.618
		c14.038,5.075,21.33,20.532,16.255,34.57l-9.017,24.849h8.857l7.993-22.018c4.279-11.839,1.893-25.145-6.229-34.802
		C254.967,46.086,249.77,42.509,243.929,40.397z"/>
	<path style="fill:#FFFFFF;" d="M154.918,36.65h-0.079c-19.52,0-35.367,16.149-35.324,35.669c0.014,6.212,1.668,12.423,4.784,17.781
		c6.328,10.88,18.059,17.687,30.616,17.688l18.044-0.033l8.314-8.338c0,0-26.358,0.083-26.359,0.083
		c-14.893,0-27.036-12.114-27.069-27.01c-0.015-7.231,2.786-14.034,7.888-19.158c5.102-5.124,11.894-7.954,19.185-7.969
		c14.201,0,25.901,11.017,26.988,24.951l8.348-0.21C189.142,51.582,173.703,36.65,154.918,36.65z"/>
	<path style="fill:#FFFFFF;" d="M315.425,37.874c-0.552-0.026-1.105-0.039-1.658-0.039c-2.086,0-4.189,0.188-6.251,0.558
		c-12.419,2.231-22.794,10.971-27.074,22.81L267.429,97.17l5.001,10.666l15.845-43.801c3.715-10.275,13.311-17.31,24.142-17.84
		L315.425,37.874z"/>
	<path style="fill:#FFFFFF;" d="M77.872,37.019c-3.411,0-6.791,0.495-10.075,1.475l2.838,7.851c2.361-0.658,4.787-0.99,7.238-0.99
		c11.363,0,21.595,7.182,25.46,17.873c5.075,14.038-2.217,29.587-16.255,34.663c-2.97,1.074-6.066,1.618-9.203,1.618
		c-11.363,0-21.595-7.183-25.46-17.873L40.218,47.895l-5.001,10.665l9.366,25.907c4.28,11.838,14.654,20.578,27.073,22.809
		c2.063,0.371,4.167,0.559,6.253,0.559c4.087,0,8.125-0.711,12.002-2.112c8.893-3.215,16.001-9.7,20.016-18.261
		c4.015-8.562,4.455-18.174,1.24-27.066C106.112,46.414,92.732,37.019,77.872,37.019z"/>
	<path style="fill:#FFFFFF;" d="M20.846,81.636L5.001,37.835L0,48.501l13.013,35.966c4.28,11.839,14.655,20.58,27.074,22.81
		c2.062,0.371,4.165,0.558,6.251,0.558c0.553,0,1.106-0.013,1.658-0.039l-3.008-8.32C34.158,98.945,24.561,91.911,20.846,81.636z"/>
</g>
<g>
</g>
<g>
</g>
<g>
</g>
<g>
</g>
<g>
</g>
<g>
</g>
<g>
</g>
<g>
</g>
<g>
</g>
<g>
</g>
<g>
</g>
<g>
</g>
<g>
</g>
<g>
</g>
<g>
</g>
</svg>
