<?xml version="1.0" encoding="iso-8859-1"?>
<!-- Generator: Adobe Illustrator 17.0.0, SVG Export Plug-In . SVG Version: 6.00 Build 0)  -->
<!DOCTYPE svg PUBLIC "-//W3C//DTD SVG 1.1//EN" "http://www.w3.org/Graphics/SVG/1.1/DTD/svg11.dtd">
<svg version="1.1" id="Layer_1" xmlns="http://www.w3.org/2000/svg" xmlns:xlink="http://www.w3.org/1999/xlink" x="0px" y="0px"
	 width="210.242px" height="107.732px" viewBox="0 0 210.242 107.732" style="enable-background:new 0 0 210.242 107.732;"
	 xml:space="preserve">
<g>
	<path style="fill:#FFFFFF;" d="M201.84,50.806c-3.858-4.588-8.827-8.258-14.87-10.443c-18.317-6.622-38.481,2.859-45.103,21.175
		s2.885,38.534,21.202,45.156c1.125,0.407,2.27,0.752,3.405,1.038l6.063-16.751c-1.156-0.17-2.308-0.457-3.449-0.869
		c-9.158-3.311-13.897-13.419-10.586-22.578c3.311-9.158,13.42-13.835,22.579-10.524c9.158,3.311,13.979,13.641,10.668,22.641h0.083
		v-0.053L181.47,107.65h18.75l7.61-22.057v-0.037v-0.019C212.831,73.263,209.677,60.124,201.84,50.806z"/>
	<path style="fill:#FFFFFF;" d="M53.831,39.29c-6.043-2.185-12.291-2.607-18.191-1.547C23.657,39.896,13.113,48.192,8.676,60.465
		c0,0,0,0,0,0.001c0,0,0,0,0,0L0,84.463l10.588,22.578l4.289-11.863l10.382-28.717l0,0l0,0c3.311-9.158,13.419-13.898,22.578-10.587
		c9.158,3.311,13.899,13.419,10.588,22.578c-3.311,9.158-13.419,13.899-22.578,10.588c-1.142-0.413-2.215-0.931-3.212-1.54
		l-6.049,16.733c1.058,0.507,2.139,0.982,3.266,1.39c18.317,6.622,38.534-2.859,45.156-21.175S72.148,45.912,53.831,39.29z"/>
	<path style="fill:#FFFFFF;" d="M121.435,89.04c-9.158-3.311-13.899-13.419-10.588-22.578c1.855-5.132,5.845-8.875,10.606-10.593
		l6.679-18.668c-10.393-0.228-20.302,4.185-27.302,11.939V0l-17,17.557v8.454v64.164l17,17.557V95.777
		c4,4.31,8.759,7.756,14.539,9.845c9.781,3.536,20.137,2.478,28.643-2.063l-7.489-16.008
		C132.128,90.201,126.638,90.921,121.435,89.04z"/>
</g>
<g>
</g>
<g>
</g>
<g>
</g>
<g>
</g>
<g>
</g>
<g>
</g>
<g>
</g>
<g>
</g>
<g>
</g>
<g>
</g>
<g>
</g>
<g>
</g>
<g>
</g>
<g>
</g>
<g>
</g>
</svg>
